<svg t="1727001893136" class="icon" viewBox="0 0 1024 1024" version="1.1" xmlns="http://www.w3.org/2000/svg" p-id="1080" width="20" height="20"><path d="M830.236444 738.019556c-31.744 17.009778-127.317333 89.884444-161.564444 93.696-34.019556 3.868444-126.008889-2.161778-191.431111-7.623112-74.012444-6.200889-45.169778-32.881778-33.450667-35.783111 11.719111-2.844444 153.6-9.671111 200.931556-14.506666 42.666667-4.380444 36.522667-41.870222-11.548445-43.349334-48.071111-1.479111-265.841778-14.563556-339.057777-10.24C220.785778 724.707556 113.777778 811.804444 113.777778 811.804444l3.982222 13.880889 156.046222 123.448889 20.821334-1.422222s38.229333-19.626667 70.087111-25.543111c31.800889-5.916444 207.644444 11.377778 268.344889 3.413333 60.700444-7.850667 217.088-124.472889 251.448888-149.845333 16.668444-12.515556 28.558222-30.264889 25.088-34.986667-16.668444-22.698667-58.766222-13.653333-79.36-2.673778zM592.896 244.053333s23.324444 42.780444 56.32 67.128889c32.995556 24.348444 84.195556 76.060444 80.384 160.540445-3.413333 77.198222-74.922667 148.821333-186.026667 160.711111-9.272889 1.137778-18.602667 1.706667-27.989333 1.706666h-4.949333c-9.329778 0.056889-18.659556-0.568889-27.932445-1.706666-111.104-11.946667-182.613333-83.626667-186.026666-160.711111-3.697778-84.48 47.445333-136.078222 80.440888-160.483556 32.995556-24.462222 56.206222-67.185778 56.206223-67.185778zM480.142222 358.4a20.878222 20.878222 0 0 0-25.770666-2.730667c-8.078222 5.233778-9.500444 14.791111-3.242667 21.447111l35.84 38.513778 1.080889 1.024h-36.807111c-10.126222 0-18.318222 6.826667-18.318223 15.246222 0 8.419556 8.248889 15.189333 18.318223 15.189334h43.178666v19.342222h-43.178666c-10.126222 0-18.318222 6.826667-18.318223 15.246222 0 8.419556 8.248889 15.189333 18.318223 15.189334h43.178666v35.441777c0 8.419556 8.135111 15.246222 18.318223 15.246223 10.126222 0 18.318222-6.997333 18.318222-15.473778v-35.214222h43.178666c10.069333-0.056889 18.318222-6.826667 18.318223-15.303112 0-8.419556-8.248889-15.189333-18.375111-15.189333h-43.121778v-19.342222h43.235555c10.012444 0 18.204444-6.826667 18.204445-15.189333 0-8.419556-8.192-15.246222-18.318222-15.246223h-36.750223l1.024-1.024 35.84-38.456889c6.144-6.656 4.835556-16.270222-3.242666-21.447111a20.935111 20.935111 0 0 0-25.770667 2.673778l-32.597333 35.043556zM397.937778 161.678222C420.977778 176.071111 456.078222 222.435556 456.078222 222.435556h113.948445s35.157333-46.307556 58.254222-60.700445c20.138667-13.084444 16.497778-25.258667 13.425778-28.216889-3.128889-2.958222-7.054222-7.793778-17.408-5.518222-10.353778 2.275556-24.746667 8.817778-35.669334 4.949333-10.922667-3.811556-22.698667-18.773333-35.84-19.114666a34.360889 34.360889 0 0 0-27.192889 11.150222c-4.266667 4.949333-8.931556 8.021333-12.515555 8.590222a24.462222 24.462222 0 0 1-12.515556-8.590222A34.872889 34.872889 0 0 0 473.429333 113.777778c-13.084444 0.227556-24.974222 15.246222-35.896889 19.114666s-25.372444-2.56-35.669333-4.949333c-10.24-2.389333-14.222222 2.446222-17.294222 5.518222-3.128889 3.015111-6.769778 15.189333 13.368889 28.216889z" fill="#000" p-id="1081"></path></svg>